<svg xmlns="http://www.w3.org/2000/svg" xmlns:xlink="http://www.w3.org/1999/xlink"><defs>
		<rect id="SVGID_1_" width="40" height="40"/>
	
		<path id="SVGID_1_" d="M9.3,30.2c-3-1.8-3.5-2.6-3.5-6.1V17c0-0.5,0.1-0.7,0.3-1.1c0.3-0.6,1-0.9,1.6-0.9c0.3,0,0.6,0.1,0.9,0.2
			l5.7,3.3c1.7,1,2.9,3.1,3.1,5.4l0,10.1c0,0.3-0.2,0.5-0.5,0.5c-0.1,0-0.2,0-0.2-0.1l0,0L9.3,30.2z M34.1,15.2
			c0,0.1,0.1,0.2,0.1,0.2l0,0l0,8.7c-0.1,3.7-0.6,4.4-4.1,6.4l-5.8,3.4c-0.4,0.2-0.7,0.3-1.1,0.3c-0.7,0-1.3-0.4-1.6-0.9
			c-0.2-0.3-0.3-0.6-0.3-0.9v-6.7c0-2,1.3-4.2,3.2-5.5l8.9-5.1v0C33.7,14.9,34,14.9,34.1,15.2 M17.8,16.1l-9-5.1
			c-0.2-0.1-0.3-0.4-0.2-0.7c0-0.1,0.1-0.1,0.2-0.2v0l7.6-4.4C19.7,4,20.6,4,24.1,6l5.8,3.3c0.4,0.2,0.6,0.4,0.8,0.8
			c0.3,0.6,0.3,1.3,0,1.9c-0.2,0.3-0.4,0.5-0.7,0.7l-5.8,3.4c-0.9,0.5-1.9,0.8-3.1,0.8C20,16.9,18.9,16.6,17.8,16.1 M20,0
			c-1.3,0-2.6,0.3-3.7,1L5.6,7.3C3.4,8.6,2,11,2,13.6v12.8c0,2.6,1.4,5,3.6,6.3L16.3,39c1.1,0.7,2.4,1,3.7,1H20c1.3,0,2.6-0.3,3.7-1
			l10.7-6.3c2.2-1.3,3.6-3.7,3.6-6.3V13.6c0-2.6-1.4-5-3.6-6.3L23.7,1C22.6,0.3,21.3,0,20,0z"/>
	</defs><symbol id="icon-01" viewBox="0 0 50 50">
<g>
	<path d="M48.2,10c-1.1-1.1-2.7-1.8-4.3-1.8c-1.6,0-3.1,0.6-4.3,1.8L36,13.6V1.7c0-0.7-0.6-1.3-1.3-1.3H12.1
		c-0.4,0-0.7,0.1-1,0.4L0.4,11.5c-0.3,0.3-0.4,0.6-0.4,1v36.2C0,49.4,0.6,50,1.4,50h33.3c0.7,0,1.3-0.6,1.3-1.3V30.7l12.2-12.2
		c1.1-1.1,1.8-2.7,1.8-4.3C50,12.7,49.4,11.1,48.2,10 M23.3,38.3l-4.5,1.2l1.2-4.5L23.3,38.3z M25.9,37.1l-4.8-4.8l17.1-17.1L43,20
		L25.9,37.1z M10.8,5v6.2H4.6L10.8,5z M33.3,47.3H2.7V13.8h9.4c0.7,0,1.3-0.6,1.3-1.3V3.1h19.9v13.2L18.3,31.4c0,0,0,0,0,0
		c-0.2,0.2-0.3,0.4-0.4,0.6l-2.4,9c-0.1,0.5,0,1,0.4,1.3c0.3,0.3,0.6,0.4,1,0.4c0.1,0,0.2,0,0.3,0l9-2.4c0.2-0.1,0.5-0.2,0.6-0.4
		c0,0,0,0,0,0l6.5-6.5V47.3z M46.3,16.7l-1.4,1.4l-4.8-4.8l1.4-1.4c0.6-0.6,1.5-1,2.4-1c0.9,0,1.7,0.3,2.4,1c0.6,0.6,1,1.5,1,2.4
		C47.3,15.2,47,16,46.3,16.7"/>
	<path d="M11.4,40.1H7.5c-0.7,0-1.3,0.6-1.3,1.3c0,0.7,0.6,1.3,1.3,1.3h3.9c0.7,0,1.3-0.6,1.3-1.3
		C12.8,40.7,12.2,40.1,11.4,40.1"/>
	<path d="M12.1,34.7H7.5c-0.7,0-1.3,0.6-1.3,1.3c0,0.7,0.6,1.3,1.3,1.3h4.6c0.7,0,1.3-0.6,1.3-1.3
		C13.5,35.3,12.9,34.7,12.1,34.7"/>
	<path d="M13.5,29.3H7.5c-0.7,0-1.3,0.6-1.3,1.3c0,0.7,0.6,1.3,1.3,1.3h5.9c0.7,0,1.3-0.6,1.3-1.3
		C14.8,29.9,14.2,29.3,13.5,29.3"/>
	<path d="M7.5,26.6h9.8c0.7,0,1.3-0.6,1.3-1.3c0-0.7-0.6-1.3-1.3-1.3H7.5c-0.7,0-1.3,0.6-1.3,1.3
		C6.2,26,6.8,26.6,7.5,26.6"/>
	<path d="M7.5,21.2h15.3c0.7,0,1.3-0.6,1.3-1.3c0-0.7-0.6-1.3-1.3-1.3H7.5c-0.7,0-1.3,0.6-1.3,1.3
		C6.2,20.6,6.8,21.2,7.5,21.2"/>
	<path d="M17.5,15.9h11.6c0.7,0,1.3-0.6,1.3-1.3c0-0.7-0.6-1.3-1.3-1.3H17.5c-0.7,0-1.3,0.6-1.3,1.3
		C16.1,15.2,16.7,15.9,17.5,15.9"/>
	<path d="M17.5,10.5h11.6c0.7,0,1.3-0.6,1.3-1.3c0-0.7-0.6-1.3-1.3-1.3H17.5c-0.7,0-1.3,0.6-1.3,1.3
		C16.1,9.9,16.7,10.5,17.5,10.5"/>
</g>
</symbol><symbol id="icon-02" viewBox="0 0 50 50">
<g>
	<path d="M43.4,28.5l-9.7-8.6c-0.5-0.5-1.3-0.4-1.8,0.1c-0.5,0.5-0.4,1.3,0.1,1.8l8.6,7.7L32,37.1
		c-0.5,0.5-0.6,1.3-0.1,1.8c0.3,0.3,0.6,0.4,1,0.4c0.3,0,0.6-0.1,0.9-0.3l9.7-8.6c0.3-0.2,0.4-0.6,0.4-1
		C43.8,29.1,43.6,28.7,43.4,28.5"/>
	<path d="M18.1,19.9c-0.5-0.5-1.3-0.6-1.8-0.1l-9.7,8.6c-0.3,0.2-0.4,0.6-0.4,1c0,0.4,0.2,0.7,0.4,1l9.7,8.6
		c0.2,0.2,0.5,0.3,0.9,0.3c0.4,0,0.7-0.1,1-0.4c0.5-0.5,0.4-1.3-0.1-1.8l-8.6-7.7l8.6-7.7C18.6,21.3,18.6,20.5,18.1,19.9"/>
	<path d="M28.1,19.2c-0.7-0.2-1.4,0.2-1.6,0.9l-5.4,17.8c-0.2,0.7,0.2,1.4,0.9,1.6c0.1,0,0.2,0.1,0.4,0.1
		c0.6,0,1.1-0.4,1.2-0.9l5.4-17.8C29.1,20.1,28.7,19.4,28.1,19.2"/>
	<path d="M48.7,0H1.3C0.6,0,0,0.6,0,1.3v47.4C0,49.4,0.6,50,1.3,50h47.4c0.7,0,1.3-0.6,1.3-1.3V1.3
		C50,0.6,49.4,0,48.7,0 M47.4,7.7h-5.1V2.6h5.1V7.7z M10.3,2.6h29.5v5.1H10.3V2.6z M2.6,2.6h5.1v5.1H2.6V2.6z M2.6,10.3h44.9v37.2
		H2.6V10.3z"/>
</g>
</symbol><symbol id="icon-app" viewBox="0 0 40 40">
<g>
	<path fill="#97BA33" d="M20.3,0C9.5,0,0.7,8.8,0.7,19.7c0,3.4,0.9,6.8,2.6,9.8L0,39.1c-0.1,0.2,0,0.5,0.1,0.7C0.3,39.9,0.5,40,0.7,40
		c0.1,0,0.1,0,0.2,0l10.6-2.8c2.8,1.4,5.8,2.1,8.9,2.1c10.8,0,19.7-8.8,19.7-19.7C40,8.8,31.2,0,20.3,0"/>
</g>
<g>
	<path fill="#FFFFFF" d="M24.9,7.8h-9.1c-1.4,0-2.5,1.1-2.5,2.5v18c0,1.4,1.1,2.5,2.5,2.5h9.1c1.4,0,2.5-1.1,2.5-2.5v-18
		C27.4,8.9,26.3,7.8,24.9,7.8 M20.4,29.9c-0.8,0-1.4-0.6-1.4-1.4c0-0.8,0.6-1.4,1.4-1.4c0.8,0,1.4,0.6,1.4,1.4
		C21.8,29.3,21.2,29.9,20.4,29.9 M25.1,25.2c0,0.4-0.4,0.8-0.8,0.8h-7.9c-0.4,0-0.8-0.3-0.8-0.8V10.2c0-0.4,0.4-0.8,0.8-0.8h7.9
		c0.4,0,0.8,0.3,0.8,0.8V25.2z"/>
</g>
</symbol><symbol id="icon-chatbots" viewBox="0 0 40 40">
<g>
	<path fill="#6AACCE" d="M40,20c0,11-9,20-20,20C9,40,0,31,0,20C0,9,9,0,20,0C31,0,40,9,40,20"/>
	<path fill="#FFFFFF" d="M30.3,17.3h-0.8v-1.1c0-1.7-1.4-3.1-3.2-3.1h-5.2v-2.6c0.7-0.4,1.1-1.1,1.1-2c0-1.3-1-2.3-2.3-2.3
		c-1.3,0-2.3,1-2.3,2.3c0,0.8,0.5,1.6,1.1,2V13h-5.2c-1.7,0-3.1,1.4-3.1,3.1v1.1H9.7c-1,0-1.8,0.8-1.8,1.8v3.8c0,1,0.8,1.8,1.8,1.8
		h0.8v1.1c0,1.7,1.4,3.1,3.1,3.1h1.5v1.7c0,1,0.8,1.8,1.8,1.8h6.1c1,0,1.8-0.8,1.8-1.8v-1.7h1.5c1.7,0,3.2-1.4,3.2-3.1v-1.1h0.8
		c1,0,1.8-0.8,1.8-1.8v-3.8C32,18.1,31.2,17.3,30.3,17.3 M13.1,18.5c0-1.2,0.9-2.1,2.1-2.1c1.2,0,2.1,0.9,2.1,2.1
		c0,1.2-0.9,2.1-2.1,2.1C14,20.6,13.1,19.6,13.1,18.5 M22.8,26.1h-5.7c-0.9,0-1.7-0.8-1.7-1.7c0-0.9,0.8-1.7,1.7-1.7h5.7
		c0.9,0,1.7,0.8,1.7,1.7C24.6,25.3,23.8,26.1,22.8,26.1 M24.8,20.6c-1.2,0-2.1-0.9-2.1-2.1c0-1.2,0.9-2.1,2.1-2.1
		c1.2,0,2.1,0.9,2.1,2.1C26.9,19.6,26,20.6,24.8,20.6"/>
</g>
</symbol><symbol id="icon-email" viewBox="0 0 40 40">
<style type="text/css">
	.st0{clip-path:url(#SVGID_2_);fill:#7296CD;}
	.st1{clip-path:url(#SVGID_2_);fill:#FFFFFF;}
</style>
<g>
	
	<clipPath id="SVGID_2_">
		<use xlink:href="#SVGID_1_" style="overflow:visible;"/>
	</clipPath>
	<path class="st0" d="M20,0c11,0,20,9,20,20s-9,20-20,20S0,31,0,20S9,0,20,0"/>
	<polygon class="st1" points="6.9,12.2 6.9,27.8 14.5,20 	"/>
	<polygon class="st1" points="33.1,12.2 33.1,27.8 25.6,20 	"/>
	<path class="st1" d="M7.5,11.5h25l-9.8,10.2C22,22.5,21,22.9,20,22.9c-1,0-2-0.4-2.7-1.1L7.5,11.5z"/>
	<path class="st1" d="M23.2,22.3c-0.8,0.9-2,1.4-3.2,1.4c-1.2,0-2.4-0.5-3.2-1.4l-1.7-1.7l-7.6,7.9h25l-7.6-7.9L23.2,22.3z"/>
</g>
</symbol><symbol id="icon-fb"><path fill-rule="#adb0c2" clip-rule="#adb0c2" d="M5.189 16.28V8.306H7.39l.291-2.749H5.19l.004-1.376c0-.717.068-1.1 1.097-1.1h1.377V.33H5.465C2.82.33 1.889 1.664 1.889 3.906v1.65H.239v2.749h1.65v7.976h3.3z" fill="#adb0c2"/></symbol><symbol id="icon-feedback" viewBox="0 0 40 40">
<g>
	<g>
		<path fill="#DAB81A" d="M20,0C9,0,0,9,0,20c0,11,9,20,20,20s20-9,20-20C40,9,31,0,20,0z M12.5,13.7H24l-0.1-0.1
			c-0.6-0.6-0.6-1.5,0-2.1c0.6-0.6,1.5-0.6,2,0l2.7,2.7c0,0,0,0,0,0c0,0,0,0,0,0c0,0,0,0,0,0c0,0,0,0,0,0c0,0,0,0,0,0.1l0,0
			c0,0,0,0,0,0c0.1,0.1,0.2,0.3,0.3,0.4c0.1,0.2,0.1,0.4,0.1,0.6c0,0,0,0.1,0,0.1v0c0,0,0,0,0,0c0,0.1,0,0.2,0,0.3v0
			c-0.1,0.2-0.2,0.4-0.4,0.6c0,0,0,0,0,0l-2.7,2.7c-0.3,0.3-0.6,0.4-1,0.4c-0.4,0-0.7-0.2-1-0.4c-0.6-0.6-0.5-1.5,0-2.1l0.1-0.2
			H12.5c-0.8,0-1.4-0.7-1.4-1.5C11,14.3,11.7,13.7,12.5,13.7z M27.6,26.3H16l0.1,0.2c0.6,0.6,0.6,1.5,0,2.1c-0.3,0.3-0.7,0.4-1,0.4
			c-0.4,0-0.7-0.1-1-0.4l-2.7-2.7c0,0,0,0-0.1,0c-0.2-0.2-0.3-0.4-0.4-0.6c0,0,0,0,0,0c0,0,0,0,0,0c0-0.1-0.1-0.2-0.1-0.4v0
			c0-0.2,0.1-0.3,0.1-0.5c0.1-0.2,0.2-0.4,0.4-0.5c0,0,0,0,0,0l2.7-2.7c0.6-0.6,1.5-0.6,2,0c0.6,0.6,0.5,1.5,0,2.1L16,23.4h11.5
			c0.8,0,1.4,0.7,1.4,1.5C29,25.6,28.4,26.3,27.6,26.3z"/>
	</g>
</g>
</symbol><symbol id="icon-msn" viewBox="0 0 40 40">
<g>
	<path fill="#3DD3A1" d="M20.3,0C9.5,0,0.7,8.8,0.7,19.7c0,3.4,0.9,6.8,2.6,9.8L0,39.1c-0.1,0.2,0,0.5,0.1,0.7C0.3,39.9,0.5,40,0.7,40
		c0.1,0,0.1,0,0.2,0l10.6-2.8c2.8,1.4,5.8,2.1,8.9,2.1c10.8,0,19.7-8.8,19.7-19.7C40,8.8,31.2,0,20.3,0"/>
</g>
<g>
	<path fill="#FFFFFF" d="M13.6,19.7c0,1.4-1.2,2.6-2.6,2.6c-1.4,0-2.6-1.2-2.6-2.6c0-1.4,1.2-2.6,2.6-2.6C12.4,17,13.6,18.2,13.6,19.7"/>
	<path fill="#FFFFFF" d="M22.9,19.7c0,1.4-1.2,2.6-2.6,2.6c-1.4,0-2.6-1.2-2.6-2.6c0-1.4,1.2-2.6,2.6-2.6C21.8,17,22.9,18.2,22.9,19.7"/>
	<path fill="#FFFFFF" d="M32.3,19.7c0,1.4-1.2,2.6-2.6,2.6c-1.4,0-2.6-1.2-2.6-2.6c0-1.4,1.2-2.6,2.6-2.6C31.2,17,32.3,18.2,32.3,19.7"/>
</g>
</symbol><symbol id="icon-skype" viewBox="0 0 24.08 24.08">
<path fill="#adb0c2" d="M23.029,13.494c0.34,0.481,0.599,1.003,0.78,1.575c0.18,0.57,0.271,1.16,0.271,1.771c0,0.875-0.177,1.697-0.527,2.467
    c-0.351,0.768-0.834,1.445-1.45,2.033c-0.616,0.582-1.333,1.039-2.157,1.371s-1.691,0.495-2.613,0.495
    c-1.313,0-2.491-0.31-3.536-0.929c-0.29,0.04-0.582,0.069-0.877,0.091c-0.296,0.02-0.589,0.028-0.882,0.028
    c-1.534,0-2.974-0.275-4.321-0.823c-1.344-0.551-2.521-1.299-3.535-2.252c-1.011-0.949-1.808-2.068-2.382-3.349
    c-0.579-1.281-0.868-2.65-0.868-4.105c0-0.282,0.014-0.55,0.044-0.798c0.027-0.248,0.064-0.501,0.102-0.754
    C0.358,9.316,0,8.243,0,7.092c0-0.856,0.177-1.665,0.528-2.426c0.35-0.76,0.83-1.421,1.446-1.982C2.59,2.122,3.311,1.68,4.13,1.356
    c0.821-0.324,1.692-0.482,2.614-0.482c0.664,0,1.287,0.078,1.879,0.237c0.592,0.161,1.146,0.385,1.657,0.678
    c0.289-0.041,0.585-0.07,0.877-0.093c0.296-0.018,0.592-0.029,0.881-0.029c1.539,0,2.984,0.268,4.335,0.801
    c1.348,0.529,2.528,1.262,3.542,2.192c1.014,0.934,1.813,2.015,2.393,3.245c0.578,1.232,0.867,2.554,0.867,3.962
    C23.176,12.386,23.128,12.929,23.029,13.494z M17.333,16.696c0.474-0.624,0.708-1.357,0.708-2.199c0-0.663-0.132-1.22-0.392-1.672
    c-0.271-0.45-0.653-0.827-1.146-1.128c-0.453-0.292-1.042-0.551-1.763-0.783c-0.725-0.182-1.494-0.36-2.307-0.542l-0.891-0.203
    c-0.239-0.051-0.429-0.094-0.572-0.133c-0.159-0.039-0.306-0.082-0.446-0.133c-0.132-0.047-0.272-0.102-0.412-0.162
    C9.84,9.627,9.612,9.472,9.431,9.29c-0.14-0.157-0.21-0.368-0.21-0.63c0-0.383,0.228-0.725,0.681-1.028
    c0.513-0.283,1.14-0.419,1.885-0.41c0.861,0,1.466,0.127,1.807,0.382c0.412,0.302,0.735,0.674,0.966,1.113
    c0.201,0.322,0.405,0.562,0.616,0.72c0.201,0.154,0.48,0.237,0.831,0.248c0.395,0,0.722-0.131,0.997-0.395
    c0.269-0.246,0.398-0.523,0.391-0.835c0-0.361-0.102-0.716-0.302-1.058c-0.198-0.321-0.531-0.663-0.99-1.026
    c-0.232-0.156-0.487-0.299-0.762-0.43c-0.276-0.132-0.586-0.248-0.923-0.346c-0.353-0.096-0.724-0.17-1.115-0.22
    c-0.392-0.049-0.82-0.072-1.294-0.072c-1.194,0-2.201,0.146-3.021,0.438c-0.881,0.304-1.548,0.722-2,1.264
    C6.536,7.521,6.31,8.141,6.31,8.865c0,0.762,0.219,1.382,0.651,1.86c0.435,0.517,1.024,0.908,1.769,1.173
    c0.708,0.283,1.613,0.531,2.723,0.745c0.415,0.098,0.778,0.181,1.099,0.244c0.316,0.062,0.603,0.133,0.854,0.21
    c0.473,0.129,0.857,0.345,1.15,0.652c0.313,0.266,0.47,0.608,0.47,1.03c0,0.583-0.286,1.055-0.851,1.415
    c-0.534,0.369-1.256,0.551-2.165,0.538c-0.728,0-1.255-0.084-1.589-0.254c-0.415-0.189-0.721-0.429-0.922-0.715
    c-0.255-0.326-0.459-0.688-0.623-1.079c-0.143-0.371-0.336-0.651-0.588-0.84c-0.235-0.191-0.51-0.286-0.833-0.286
    c-0.412,0-0.752,0.115-1.021,0.341c-0.269,0.257-0.398,0.558-0.392,0.896c0,0.589,0.218,1.178,0.65,1.768
    c0.429,0.607,0.98,1.081,1.651,1.422c0.983,0.508,2.218,0.765,3.702,0.775c1.211,0,2.29-0.18,3.229-0.539
    C16.196,17.812,16.884,17.305,17.333,16.696z"/>
</symbol><symbol id="icon-sn" viewBox="0 0 40 40">
<path fill="#3B4269" d="M20,0C9,0,0,9,0,20c0,11,9,20,20,20s20-9,20-20C40,9,31,0,20,0z M17.8,20c0,0.4-0.1,0.8-0.2,1.2l5.6,2.7
	c0.6-0.7,1.6-1.1,2.6-1.1c1.9,0,3.5,1.6,3.5,3.5c0,1.9-1.6,3.5-3.5,3.5c-1.9,0-3.5-1.6-3.5-3.5c0-0.2,0-0.4,0-0.5l-5.9-2.9
	c-0.6,0.4-1.3,0.7-2.1,0.7c-1.9,0-3.5-1.6-3.5-3.5c0-1.9,1.6-3.5,3.5-3.5c0.8,0,1.5,0.3,2.1,0.7l5.9-2.9c0-0.2,0-0.4,0-0.5
	c0-1.9,1.6-3.5,3.5-3.5c1.9,0,3.5,1.6,3.5,3.5c0,1.9-1.6,3.5-3.5,3.5c-1,0-1.9-0.4-2.6-1.1l-5.6,2.7C17.7,19.2,17.8,19.6,17.8,20z"/>
</symbol><symbol id="icon-step_01" viewBox="0 0 74 74">
<g id="&#x421;&#x43B;&#x43E;&#x439;_1">
	<circle cx="37" cy="37" r="37"/>
</g>
<g id="&#x421;&#x43B;&#x43E;&#x439;_2">
	<path class="st1" d="M41.8,37.5c3.5,0,6.4-2.8,6.4-6.3c0-3.4-2.9-6.2-6.4-6.2s-6.4,2.8-6.4,6.2C35.4,34.7,38.3,37.5,41.8,37.5z
		 M27.5,34.4v-4.7h-3.2v4.7h-4.8v3.1h4.8v4.7h3.2v-4.7h4.8v-3.1H27.5z M41.8,40.6c-4.3,0-12.7,2-12.7,6.2V50h25.5v-3.1
		C54.5,42.7,46.1,40.6,41.8,40.6z"/>
</g>
</symbol><symbol id="icon-step_02" viewBox="0 0 74 74">
<g id="&#x421;&#x43B;&#x43E;&#x439;_1">
	<circle cx="37" cy="37" r="37"/>
</g>
<g id="&#x421;&#x43B;&#x43E;&#x439;_3">
	<path class="st1" d="M47.1,25.5L32.6,39.8l-5.6-5.5l-4.4,4.4l10.1,9.9l18.9-18.6L47.1,25.5z"/>
</g>
</symbol><symbol id="icon-step_03" viewBox="0 0 74 74">
<g id="&#x421;&#x43B;&#x43E;&#x439;_1">
	<circle cx="37" cy="37" r="37"/>
</g>
<g id="&#x421;&#x43B;&#x43E;&#x439;_4">
	<path class="st1" fill="FFFFFF" d="M54.9,35c-0.1-0.5-0.6-0.9-1.2-0.9c-1.6,0-3.1-1-3.7-2.5c-0.6-1.5-0.2-3.3,1-4.5c0.4-0.4,0.4-0.9,0.1-1.4
		c-0.8-1.1-1.8-2-2.9-2.9c-0.4-0.3-1-0.3-1.4,0.1c-1.1,1.2-3,1.6-4.5,1c-1.5-0.7-2.5-2.2-2.4-3.9c0-0.5-0.4-1-0.9-1.1
		c-1.3-0.2-2.7-0.2-4,0c-0.5,0.1-0.9,0.5-0.9,1c0.1,1.7-0.9,3.2-2.5,3.8c-1.5,0.6-3.4,0.2-4.5-1c-0.4-0.4-0.9-0.4-1.4-0.1
		c-1.1,0.8-2.1,1.8-2.9,2.9c-0.3,0.4-0.3,1,0.1,1.4c1.3,1.1,1.7,2.9,1,4.5c-0.6,1.5-2.2,2.4-3.9,2.4c-0.6,0-1,0.4-1,0.9
		c-0.2,1.4-0.2,2.7,0,4.1c0.1,0.5,0.7,0.9,1.2,0.9c1.6,0,3.1,0.9,3.7,2.5c0.6,1.5,0.2,3.3-1,4.5c-0.4,0.4-0.4,0.9-0.1,1.4
		c0.8,1.1,1.8,2,2.8,2.9c0.4,0.3,1,0.3,1.4-0.1c1.1-1.2,3-1.6,4.5-1c1.6,0.6,2.5,2.2,2.4,3.9c0,0.5,0.4,1,0.9,1.1
		C35.6,55,36.3,55,37,55c0.7,0,1.3,0,2-0.1c0.5-0.1,0.9-0.5,0.9-1c-0.1-1.7,0.9-3.2,2.5-3.8c1.5-0.6,3.4-0.2,4.5,1
		c0.4,0.4,0.9,0.4,1.4,0.1c1.1-0.8,2.1-1.8,2.9-2.9c0.3-0.4,0.3-1-0.1-1.4c-1.3-1.1-1.7-2.9-1-4.5C50.5,41,52,40,53.6,40l0.2,0
		c0.5,0,1-0.4,1.1-0.9C55,37.7,55,36.4,54.9,35z M37,47.4c-5.7,0-10.4-4.6-10.4-10.4S31.3,26.6,37,26.6S47.4,31.3,47.4,37
		c0,1.9-0.5,3.8-1.5,5.3l-4.5-4.5c0.3-0.8,0.5-1.6,0.5-2.5c0-1.7-0.7-3.3-1.9-4.5c-1.2-1.2-2.8-1.9-4.5-1.9c-0.6,0-1.1,0.1-1.7,0.2
		c-0.2,0.1-0.4,0.3-0.5,0.5c-0.1,0.2,0,0.5,0.2,0.7c0,0,2.2,2.3,3,3c0.1,0.1,0.1,0.3,0.1,0.3l0,0c-0.1,0.8-0.2,1.8-0.3,2.2
		c0,0,0,0,0,0c0,0,0,0,0,0.1c-0.4,0.1-1.4,0.3-2.2,0.3l0,0l0,0c0,0,0,0,0,0c-0.1,0-0.2,0-0.3-0.1c-0.8-0.8-2.9-2.9-2.9-2.9
		c-0.2-0.2-0.4-0.2-0.5-0.2c-0.3,0-0.6,0.2-0.7,0.5c-0.6,2.2,0,4.6,1.6,6.2c1.2,1.2,2.8,1.9,4.5,1.9c0.9,0,1.7-0.2,2.5-0.5l4.6,4.6
		C41,46.8,39.1,47.4,37,47.4z"/>
</g>
</symbol><symbol id="icon-step_04" viewBox="0 0 74 74">
<g id="&#x421;&#x43B;&#x43E;&#x439;_1">
	<circle cx="37" cy="37" r="37"/>
</g>
<g id="&#x421;&#x43B;&#x43E;&#x439;_3">
	<path fill-rule="evenodd" clip-rule="evenodd" fill="#FFFFFF" d="M57,26.3l-0.3,2.5c-0.1,0.8-0.2,1.6-0.4,2.4l-0.1,0.5c-0.4,2.3-0.7,4.2-1.1,5.9c-0.4,1.9-0.9,4-1.5,6.1
		c-0.4,1.2-0.7,2.2-1.1,3.1c-0.2,0.6-0.5,1.1-0.7,1.6c-0.3,0.5-0.6,1-1.1,1.6c-0.2,0.3-0.5,0.5-0.8,0.7c-0.2,0.2-0.6,0.3-1.1,0.4
		c-0.4,0.1-0.8,0-1.1-0.1c-0.3-0.1-0.6-0.3-0.9-0.5c-0.6-0.5-1-1-1.3-1.4c-0.4-0.5-0.7-1.1-0.9-1.5c-0.6-1.1-1-2.2-1.4-3
		c-0.4-1-0.8-2.1-1.2-3c-0.2-0.6-0.4-1.2-0.6-1.8c-0.5-1.4-1-2.8-1.5-4.1c-0.4-1.1-0.8-1.9-1.2-2.6c0-0.1-0.1-0.2-0.2-0.3
		c0,0,0-0.1-0.1-0.1c0,0,0-0.1-0.1-0.1c-0.9-1.3-2-1.2-2.8,0.9c-0.2,0.4-0.3,0.8-0.5,1.3L34.5,36c-0.4,1.1-0.7,2.1-1.1,3
		c-0.5,1.2-0.9,2-1.4,2.8c-0.5,0.7-1.1,1.7-2,2.4c-0.5,0.4-0.9,0.6-1.4,0.8c-0.5,0.2-1,0.2-1.6,0.1c-0.5-0.1-0.9-0.3-1.4-0.5
		c-0.4-0.2-0.8-0.5-1.1-0.9c-0.6-0.6-1.2-1.3-1.7-2.2c-0.5-0.7-0.9-1.5-1.3-2.3c-0.8-1.7-1.5-3.4-1.9-4.6c-1.1-3.1-1.9-5.9-2.4-8
		c0-0.1,0-0.2-0.1-0.2c0-0.1,0-0.2,0.1-0.3c0.1-0.1,0.2-0.1,0.3-0.1c0,0,0.1,0,0.1,0c0.1,0,0.2,0.1,0.2,0.3c0.8,2.1,1.6,4.5,3,7.4
		c0.7,1.5,1.4,2.9,2.2,4.2c0.4,0.7,0.9,1.4,1.3,2c0.6,0.7,1,1.2,1.5,1.6c0.6,0.5,1.1,0.7,1.6,0.8c0.5,0,0.9-0.2,1.4-0.6
		c0.5-0.5,1-1.2,1.3-1.8c0.4-0.7,0.7-1.5,1.1-2.4c0.3-0.8,0.6-1.7,0.9-2.7l0.5-1.5c0.2-0.5,0.4-1,0.6-1.5c0.2-0.6,0.5-1.1,0.7-1.6
		c0,0,0,0,0,0c0,0,0,0,0,0c0,0,0,0,0,0l0,0c0.2-0.5,0.6-1,1-1.5c0.2-0.3,0.5-0.5,0.8-0.7c0.3-0.3,0.7-0.4,1.1-0.5
		c0.4-0.1,0.8-0.1,1.2,0c0.3,0.1,0.7,0.3,1,0.5c0.6,0.5,1,1,1.3,1.4c0.3,0.4,0.6,0.9,0.9,1.5c0.6,1.1,1,2.1,1.4,3
		c0.1,0.1,0.1,0.3,0.2,0.4c0.6,1.4,1.1,2.8,1.6,4.2l0.5,1.3c0.7,1.8,1.4,3.8,2.3,5.5c0.2,0.5,0.5,0.8,0.6,1.1c1.1,1.7,1.8,0.2,2-0.2
		c0.2-0.3,0.4-0.7,0.6-1.2c0.3-0.8,0.7-1.6,1-2.7c0.6-1.7,1.1-3.7,1.6-5.7c0.5-1.9,0.9-3.8,1.3-5.7l0.1-0.4c0.2-0.8,0.4-1.6,0.5-2.4
		l0.5-2.3l0-0.2c0.1-0.4,0.5-0.7,0.9-0.7c0.5,0,0.9,0.4,0.9,0.9c0,0,0,0,0,0L57,26.3z"/>
</g>
</symbol><symbol id="icon-step_05" viewBox="0 0 74 74">
<g id="&#x421;&#x43B;&#x43E;&#x439;_1">
	<circle cx="37" cy="37" r="37"/>
</g>
<g id="&#x421;&#x43B;&#x43E;&#x439;_2">
	<g>
		<g>
			<path fill="#FFFFFF" d="M51.5,34l-0.6,0v9.4h0.6c0.9,0,1.6-0.7,1.6-1.6v-6.3C53,34.7,52.3,34,51.5,34z M21,35.6v6.1
				c0,0.9,0.7,1.7,1.6,1.7h0.6V34l-0.6,0C21.7,34,21,34.7,21,35.6z M49.4,35.3c0-0.7-0.1-1.4-0.2-2.1c0-0.2-0.1-0.5-0.2-0.7v-1.8
				c0-6.8-5.4-12.3-12-12.3S25,24,25,30.8v1.2c-0.1,0.2-0.1,0.3-0.2,0.5c-0.2,0.9-0.4,1.9-0.4,2.8v11.6c0,0.5,0.4,0.8,0.8,0.8h2.5
				c0.8,4.4,4.7,7.8,9.3,7.8c3.6,0,6.8-2.1,8.4-5.2c2.7-0.2,4.9-2.5,4.9-5.3h-0.9V35.3z M43.9,47.9h-5.9c-0.7,0-1.2,0.6-1.2,1.2
				c0,0.7,0.5,1.2,1.2,1.2h4.6C41.3,52,39.3,53,37.1,53c-3.9,0-7-3.2-7-7.2V38c0.9-0.6,2.5-1.7,3.6-3.2c1.7,1.4,5.1,3.5,10.5,3.7
				v7.3h0C44.1,46.5,44,47.2,43.9,47.9z M38.8,24.4h-3.6c-2.7,0-5.2,1-7,2.7C29.5,23.5,33,21,37,21c4.1,0,7.7,2.7,9,6.4
				C44.2,25.6,41.6,24.4,38.8,24.4z M34.6,40.3h-1.9c-0.7,0-1.2,0.6-1.2,1.2c0,0.7,0.5,1.2,1.2,1.2h1.9c0.7,0,1.2-0.6,1.2-1.2
				C35.8,40.9,35.2,40.3,34.6,40.3z M41.4,40.3h-1.9c-0.7,0-1.2,0.6-1.2,1.2c0,0.7,0.5,1.2,1.2,1.2h1.9c0.7,0,1.2-0.6,1.2-1.2
				C42.6,40.9,42,40.3,41.4,40.3z"/>
		</g>
	</g>
</g>
</symbol><symbol id="icon-step_06" viewBox="0 0 74 74">
<g id="&#x421;&#x43B;&#x43E;&#x439;_1">
	<circle cx="37" cy="37" r="37"/>
</g>
<g id="&#x421;&#x43B;&#x43E;&#x439;_2">
	<g>
		<g>
			<path fill="#FFFFFF" d="M41.6,49h-3.4v-3h-2.4v3h-3.4c-0.7,0-1.2,0.6-1.2,1.2c0,0.7,0.5,1.2,1.2,1.2h9.2c0.7,0,1.2-0.6,1.2-1.2
				C42.8,49.6,42.3,49,41.6,49z M21,42v1.5c0,0.5,0.4,1,1,1H52c0.5,0,1-0.4,1-1V42H21z M37,26.7c2.6,0,5,0.7,7.1,2l0.8-1.1
				c0.3-0.4,0.8-0.4,1.1-0.2c0.4,0.3,0.4,0.8,0.2,1.1l-0.8,1.1c3.2,2.5,5.2,6.3,5.3,10.7H53V23.5c0-0.5-0.4-1-1-1H22
				c-0.5,0-1,0.4-1,1v16.9h2.3C23.4,32.8,29.5,26.7,37,26.7z M44,39.8c-0.1-0.1-0.1-0.2-0.1-0.3c-0.3-1.8-1.2-3.3-2.5-4.3L39,38.5
				c0.4,0.3,0.7,0.8,0.9,1.3H44z M37,37.8c0.2,0,0.3,0,0.5,0l2.6-3.5c-0.9-0.5-2-0.7-3.1-0.7c-2,0-3.8,0.8-5.1,2.2c0,0,0,0,0,0
				c0,0.1-0.1,0.1-0.1,0.2c-0.8,1-1.4,2.2-1.6,3.5c0,0.1-0.1,0.2-0.1,0.3h4.1C34.5,38.6,35.7,37.8,37,37.8z M49.1,39.8
				c-0.2-3.6-2-6.7-4.6-8.8l-2.1,2.9c0.1,0.1,0.1,0.1,0.2,0.2c1.5,1.3,2.6,3.2,2.9,5.2c0,0.2,0,0.4-0.1,0.6H49.1z M27.2,33.4
				C27.2,33.4,27.2,33.4,27.2,33.4c-1.3,1.8-2.2,4-2.3,6.4h3.7c-0.1-0.2-0.2-0.4-0.1-0.6c0.2-1.3,0.8-2.6,1.6-3.7L27.2,33.4z
				 M31.4,34c1.4-1.2,3-1.9,4.8-2v-3.6c-3.1,0.2-5.9,1.6-7.9,3.7l2.9,2.1C31.2,34.2,31.3,34.1,31.4,34z M43.1,30.1
				c-1.6-0.9-3.4-1.5-5.3-1.6V32c1.1,0.1,2.2,0.4,3.2,1L43.1,30.1z"/>
		</g>
	</g>
</g>
</symbol><symbol id="icon-tel" viewBox="0 0 13.03 11.94">
  <path d="M1357.99,4550.68a3.341,3.341,0,0,1-3.27,2.07,3.4,3.4,0,0,1-.45-0.03,11.112,11.112,0,0,1-5.83-3.13,9.761,9.761,0,0,1-3.41-5.34,2.833,2.833,0,0,1,2.23-3.41,1.241,1.241,0,0,1,.27-0.03c0.97,0,2.12,1.25,2.53,2.15a1.084,1.084,0,0,1-.06,1.31,2.1,2.1,0,0,0-1,1.46,3.313,3.313,0,0,0,1.19,1.6c0.09,0.09.22,0.21,0.36,0.34s0.25,0.22.36,0.32a3.341,3.341,0,0,0,1.81,1.09,2.479,2.479,0,0,0,1.53-.91,0.918,0.918,0,0,1,.64-0.22,4.312,4.312,0,0,1,2.71,1.51A1.326,1.326,0,0,1,1357.99,4550.68Z" transform="translate(-1345 -4540.81)"/>
</symbol><symbol id="icon-twitter" viewBox="0 0 612 612">
    <path fill="#adb0c2" d="M612,116.258c-22.525,9.981-46.694,16.75-72.088,19.772c25.929-15.527,45.777-40.155,55.184-69.411    c-24.322,14.379-51.169,24.82-79.775,30.48c-22.907-24.437-55.49-39.658-91.63-39.658c-69.334,0-125.551,56.217-125.551,125.513    c0,9.828,1.109,19.427,3.251,28.606C197.065,206.32,104.556,156.337,42.641,80.386c-10.823,18.51-16.98,40.078-16.98,63.101    c0,43.559,22.181,81.993,55.835,104.479c-20.575-0.688-39.926-6.348-56.867-15.756v1.568c0,60.806,43.291,111.554,100.693,123.104    c-10.517,2.83-21.607,4.398-33.08,4.398c-8.107,0-15.947-0.803-23.634-2.333c15.985,49.907,62.336,86.199,117.253,87.194    c-42.947,33.654-97.099,53.655-155.916,53.655c-10.134,0-20.116-0.612-29.944-1.721c55.567,35.681,121.536,56.485,192.438,56.485    c230.948,0,357.188-191.291,357.188-357.188l-0.421-16.253C573.872,163.526,595.211,141.422,612,116.258z"/>
</symbol><symbol id="icon-vk" viewBox="0 0 17 10">
<path fill-rule="#adb0c2" clip-rule="#adb0c2" d="M9.35533 9.47184C9.35533 9.47184 9.63756 9.44106 9.78211 9.28865C9.91443 9.14901 9.90985 8.88548 9.90985 8.88548C9.90985 8.88548 9.89225 7.65496 10.4743 7.47327C11.048 7.29458 11.7845 8.66325 12.5662 9.18955C13.1567 9.58746 13.6049 9.50037 13.6049 9.50037L15.6937 9.47184C15.6937 9.47184 16.7859 9.40577 16.2681 8.56265C16.2253 8.49358 15.966 7.93875 14.7154 6.79907C13.4052 5.60608 13.5812 5.79903 15.1583 3.73513C16.1189 2.47833 16.5029 1.71103 16.3828 1.38294C16.2689 1.06912 15.5621 1.15245 15.5621 1.15245L13.211 1.16672C13.211 1.16672 13.0366 1.14344 12.9073 1.21927C12.7811 1.2936 12.6993 1.46703 12.6993 1.46703C12.6993 1.46703 12.3276 2.43929 11.8312 3.26665C10.7841 5.01146 10.3657 5.10381 10.1944 4.99569C9.79588 4.74268 9.89531 3.98064 9.89531 3.43933C9.89531 1.74782 10.1569 1.04284 9.38668 0.8604C9.13122 0.799586 8.94307 0.759795 8.28912 0.753038C7.45007 0.74478 6.74028 0.756041 6.33797 0.948992C6.07027 1.07737 5.86376 1.36417 5.98996 1.38069C6.14523 1.40096 6.49706 1.47379 6.68368 1.72305C6.92461 2.04513 6.9162 2.76738 6.9162 2.76738C6.9162 2.76738 7.05464 4.75845 6.59267 5.00545C6.27602 5.17513 5.84158 4.82902 4.90769 3.24563C4.42966 2.43478 4.06864 1.53835 4.06864 1.53835C4.06864 1.53835 3.99904 1.37093 3.87437 1.28084C3.72369 1.17197 3.51336 1.13819 3.51336 1.13819L1.27921 1.15245C1.27921 1.15245 0.943443 1.16146 0.820301 1.30486C0.710927 1.43174 0.811888 1.69527 0.811888 1.69527C0.811888 1.69527 2.56111 5.71269 4.54209 7.73754C6.35862 9.59347 8.42067 9.47184 8.42067 9.47184H9.35533Z" fill="#adb0c2"/>
</symbol><symbol id="icon-yad" viewBox="0 0 40 40">
<style type="text/css">
	.st0{clip-path:url(#SVGID_2_);fill:url(#SVGID_3_);}
</style>
<g>
	
	<clipPath id="SVGID_2_">
		<use xlink:href="#SVGID_1_" style="overflow:visible;"/>
	</clipPath>

		<linearGradient id="SVGID_3_" gradientUnits="userSpaceOnUse" x1="-87.0856" y1="140" x2="-86.9189" y2="140" gradientTransform="matrix(219.5379 -11.5055 10.3552 243.9254 17670.5703 -35130.5586)">
		<stop offset="0" style="stop-color:#6F00F9"/>
		<stop offset="1" style="stop-color:#69BAC0"/>
	</linearGradient>
	<polygon class="st0" points="2.1,41.9 39.7,39.9 37.9,-1.9 0.3,0.1 	"/>
</g>
</symbol></svg>