<svg xmlns="http://www.w3.org/2000/svg" width="13.03" height="11.94"><path d="M12.99 9.87a3.341 3.341 0 0 1-3.27 2.07 3.4 3.4 0 0 1-.45-.03 11.112 11.112 0 0 1-5.83-3.13A9.761 9.761 0 0 1 .03 3.44 2.833 2.833 0 0 1 2.26.03 1.241 1.241 0 0 1 2.53 0c.97 0 2.12 1.25 2.53 2.15A1.084 1.084 0 0 1 5 3.46a2.1 2.1 0 0 0-1 1.46 3.313 3.313 0 0 0 1.19 1.6c.09.09.22.21.36.34s.25.22.36.32a3.341 3.341 0 0 0 1.81 1.09 2.479 2.479 0 0 0 1.53-.91.918.918 0 0 1 .64-.22 4.312 4.312 0 0 1 2.71 1.51 1.326 1.326 0 0 1 .39 1.22z"/></svg>