<svg width="17" height="10" fill="none" xmlns="http://www.w3.org/2000/svg"><path fill-rule="#adb0c2" clip-rule="#adb0c2" d="M9.355 9.472s.283-.03.427-.183c.132-.14.128-.404.128-.404s-.018-1.23.564-1.412c.574-.178 1.31 1.19 2.092 1.717.59.397 1.039.31 1.039.31l2.089-.028s1.092-.066.574-.91c-.043-.068-.302-.623-1.553-1.763-1.31-1.193-1.134-1 .443-3.064.96-1.257 1.345-2.024 1.225-2.352-.114-.314-.82-.23-.82-.23l-2.352.014s-.174-.024-.304.052a.652.652 0 0 0-.208.248s-.371.972-.868 1.8c-1.047 1.744-1.465 1.837-1.637 1.729-.398-.253-.299-1.015-.299-1.557 0-1.691.262-2.396-.508-2.579C9.13.8 8.943.76 8.289.753 7.45.745 6.74.756 6.338.949c-.268.128-.474.415-.348.432.155.02.507.093.694.342.24.322.232 1.044.232 1.044s.139 1.991-.323 2.238c-.317.17-.751-.176-1.685-1.76-.478-.81-.84-1.707-.84-1.707S4 1.371 3.875 1.281a.973.973 0 0 0-.36-.143l-2.235.014s-.336.01-.459.153c-.11.127-.008.39-.008.39s1.75 4.018 3.73 6.043C6.36 9.593 8.421 9.472 8.421 9.472h.934z" fill="#adb0c2"/></svg>