<svg width="17" height="10" viewBox="0 0 17 10" fill="none" xmlns="http://www.w3.org/2000/svg">
<path fill-rule="#adb0c2" clip-rule="#adb0c2" d="M9.35533 9.47184C9.35533 9.47184 9.63756 9.44106 9.78211 9.28865C9.91443 9.14901 9.90985 8.88548 9.90985 8.88548C9.90985 8.88548 9.89225 7.65496 10.4743 7.47327C11.048 7.29458 11.7845 8.66325 12.5662 9.18955C13.1567 9.58746 13.6049 9.50037 13.6049 9.50037L15.6937 9.47184C15.6937 9.47184 16.7859 9.40577 16.2681 8.56265C16.2253 8.49358 15.966 7.93875 14.7154 6.79907C13.4052 5.60608 13.5812 5.79903 15.1583 3.73513C16.1189 2.47833 16.5029 1.71103 16.3828 1.38294C16.2689 1.06912 15.5621 1.15245 15.5621 1.15245L13.211 1.16672C13.211 1.16672 13.0366 1.14344 12.9073 1.21927C12.7811 1.2936 12.6993 1.46703 12.6993 1.46703C12.6993 1.46703 12.3276 2.43929 11.8312 3.26665C10.7841 5.01146 10.3657 5.10381 10.1944 4.99569C9.79588 4.74268 9.89531 3.98064 9.89531 3.43933C9.89531 1.74782 10.1569 1.04284 9.38668 0.8604C9.13122 0.799586 8.94307 0.759795 8.28912 0.753038C7.45007 0.74478 6.74028 0.756041 6.33797 0.948992C6.07027 1.07737 5.86376 1.36417 5.98996 1.38069C6.14523 1.40096 6.49706 1.47379 6.68368 1.72305C6.92461 2.04513 6.9162 2.76738 6.9162 2.76738C6.9162 2.76738 7.05464 4.75845 6.59267 5.00545C6.27602 5.17513 5.84158 4.82902 4.90769 3.24563C4.42966 2.43478 4.06864 1.53835 4.06864 1.53835C4.06864 1.53835 3.99904 1.37093 3.87437 1.28084C3.72369 1.17197 3.51336 1.13819 3.51336 1.13819L1.27921 1.15245C1.27921 1.15245 0.943443 1.16146 0.820301 1.30486C0.710927 1.43174 0.811888 1.69527 0.811888 1.69527C0.811888 1.69527 2.56111 5.71269 4.54209 7.73754C6.35862 9.59347 8.42067 9.47184 8.42067 9.47184H9.35533Z" fill="#adb0c2"/>
</svg>
